<?xml version="1.0" standalone="no"?>
<!DOCTYPE svg PUBLIC "-//W3C//DTD SVG 1.1//EN" "http://www.w3.org/Graphics/SVG/1.1/DTD/svg11.dtd" >
<!--
2015-2-26: Created.
-->
<svg>
<metadata>
Created by FontForge 20110222 at Thu Feb 26 10:18:28 2015
 By app
Copyright (c) 2015, Metaflop (http://www.metaflop.com), Simon Egli, Marco Mueller, Alexis Reigel, with Reserved Font Name Bespoke. Dual licensed under the GPL v3 (http://www.gnu.org/copyleft/gpl.html) and the OFL v1.1 (http://scripts.sil.org/OFL_web).
</metadata>
<defs>
<font id="Bespoke-tTLcgHGxQP" horiz-adv-x="651" >
  <font-face 
    font-family="Bespoke"
    font-weight="500"
    font-stretch="normal"
    units-per-em="1000"
    panose-1="2 0 6 3 0 0 0 0 0 0"
    ascent="800"
    descent="-200"
    x-height="572"
    cap-height="880"
    bbox="-110 -360 1041 1187"
    underline-thickness="50"
    underline-position="-100"
    unicode-range="U+0020-2420"
  />
    <missing-glyph />
    <glyph glyph-name="k" unicode="k" horiz-adv-x="589" 
d="M96 950h23v-754l442 376h28l-276 -235l276 -337h-28l-264 323l-178 -151v-172h-23v950z" />
    <glyph glyph-name="Aacute" unicode="&#xc1;" horiz-adv-x="760" 
d="M14 0l316 880h22l-184 -512h422l-184 512h24l317 -880h-25l-125 347h-436l-125 -347h-22zM481 1111h29l-223 -132h-23zM406 880h-54l27 74z" />
    <glyph glyph-name="n" unicode="n" 
d="M105 464c39 84 161 118 269 118c52 0 105 -14 145 -47c36 -30 56 -73 56 -120v-415h-23v415c0 41 -18 79 -50 105c-36 29 -82 41 -128 41c-67 0 -135 -9 -194 -41c-41 -22 -75 -59 -75 -105v-415h-23v572h23v-108z" />
    <glyph glyph-name="w" unicode="w" horiz-adv-x="856" 
d="M-7 572h25l237 -572h-25zM307 0l-26 -64l-26 64h52zM307 0l110 264l-128 308h25l115 -278l115 278h23l-127 -306l111 -266h-25l-98 237l-98 -237h-23zM604 0l-27 -64l-26 64h53zM604 0l237 572h22l-237 -572h-22z" />
    <glyph glyph-name="Iacute" unicode="&#xcd;" horiz-adv-x="242" 
d="M110 0v880h23v-880h-23zM222 1111h29l-223 -132h-24z" />
    <glyph glyph-name="Rcaron" unicode="&#x158;" horiz-adv-x="692" 
d="M96 0v880h255c78 0 157 -16 221 -61c52 -37 86 -94 86 -157v-59c0 -63 -34 -120 -86 -157c-45 -32 -98 -50 -153 -57l239 -389h-29l-235 387c-14 -1 -29 -2 -43 -2h-232v-385h-23zM119 859v-453h232c72 0 145 15 204 56c47 33 79 84 79 141v59c0 57 -32 109 -79 142
c-59 41 -132 55 -204 55h-232zM332 979h-33l-162 132h23l155 -119l155 119h23z" />
    <glyph glyph-name="Nacute" unicode="&#x143;" horiz-adv-x="856" 
d="M97 0v880h21v-880h-21zM529 1111h29l-223 -132h-24zM738 0v-96l-53 96h53zM738 0v880h21v-880h-21zM685 0h-26l-488 880h26zM171 880h-53v96z" />
    <glyph glyph-name="Ncaron" unicode="&#x147;" horiz-adv-x="856" 
d="M97 0v880h21v-880h-21zM738 0v-96l-53 96h53zM738 0v880h21v-880h-21zM685 0h-26l-488 880h26zM171 880h-53v96zM445 979h-33l-162 132h23l155 -119l155 119h23z" />
    <glyph glyph-name="adieresis" unicode="&#xe4;" 
d="M569 0h-24v98c-12 -25 -32 -47 -56 -63c-51 -34 -113 -45 -174 -45c-64 0 -128 11 -182 45c-41 26 -71 68 -71 116v42c0 48 30 90 71 116c54 34 118 45 182 45c61 0 123 -11 174 -45c24 -16 44 -38 56 -63v123c0 53 -23 104 -64 138c-46 38 -106 54 -166 54
c-68 0 -139 -23 -182 -69l-16 15c48 50 124 75 198 75c66 0 133 -17 183 -60c45 -38 71 -94 71 -153v-369zM167 758c0 14 11 25 25 25s24 -11 24 -25s-10 -24 -24 -24s-25 10 -25 24zM414 758c0 14 10 25 24 25s25 -11 25 -25s-11 -24 -25 -24s-24 10 -24 24zM315 333
c-58 0 -116 -9 -166 -39c-37 -22 -64 -59 -64 -101v-42c0 -42 27 -79 64 -101c50 -30 108 -39 166 -39s116 9 166 39c37 22 64 59 64 101v42c0 42 -27 79 -64 101c-50 30 -108 39 -166 39z" />
    <glyph glyph-name="Idieresis" unicode="&#xcf;" horiz-adv-x="242" 
d="M110 0v880h23v-880h-23zM-27 1086c0 14 11 25 25 25s24 -11 24 -25s-10 -24 -24 -24s-25 10 -25 24zM220 1086c0 14 10 25 24 25s25 -11 25 -25s-11 -24 -25 -24s-24 10 -24 24z" />
    <glyph glyph-name="ucircumflex" unicode="&#xfb;" 
d="M569 572v-572h-24v101c-11 -25 -30 -47 -54 -64c-49 -35 -109 -47 -169 -47c-63 0 -126 12 -178 47c-41 28 -69 71 -69 120v415h23v-415c0 -43 27 -81 63 -105c47 -31 104 -41 161 -41s114 10 161 41c36 24 62 62 62 105v415h24zM322 770l-155 -119h-23l161 132h33
l162 -132h-23z" />
    <glyph glyph-name="Ecircumflex" unicode="&#xca;" horiz-adv-x="637" 
d="M96 0v880h493v-21h-470v-408h459v-21h-459v-409h470v-21h-493zM342 1098l-154 -119h-24l162 132h33l162 -132h-24z" />
    <glyph glyph-name="Lacute" unicode="&#x139;" horiz-adv-x="589" 
d="M96 0v880h23v-859h470v-21h-493zM208 1111h29l-222 -132h-24z" />
    <glyph glyph-name="nacute" unicode="&#x144;" 
d="M105 464c39 84 161 118 269 118c52 0 105 -14 145 -47c36 -30 56 -73 56 -120v-415h-23v415c0 41 -18 79 -50 105c-36 29 -82 41 -128 41c-67 0 -135 -9 -194 -41c-41 -22 -75 -59 -75 -105v-415h-23v572h23v-108zM430 783h28l-222 -132h-24z" />
    <glyph glyph-name="Oacute" unicode="&#xd3;" horiz-adv-x="959" 
d="M580 1111h29l-222 -132h-24zM479 869c-105 0 -208 -32 -284 -104c-73 -69 -110 -168 -110 -269v-112c0 -101 37 -199 110 -268c76 -72 179 -105 284 -105s209 33 285 105c73 69 110 167 110 268v112c0 101 -37 200 -110 269c-76 72 -180 104 -285 104zM479 890
c111 0 220 -34 301 -110c78 -73 117 -177 117 -284v-112c0 -107 -39 -211 -117 -284c-81 -76 -190 -110 -301 -110s-219 34 -300 110c-78 73 -117 177 -117 284v112c0 107 39 211 117 284c81 76 189 110 300 110z" />
    <glyph glyph-name="q" unicode="q" horiz-adv-x="706" 
d="M623 -350h-23v519c-12 -40 -34 -76 -64 -106c-52 -50 -122 -73 -194 -73c-74 0 -148 23 -202 73c-52 48 -78 116 -78 187v72c0 71 26 139 78 187c54 50 128 73 202 73c72 0 142 -23 194 -73c30 -30 52 -66 64 -106v169h23v-922zM342 561c-68 0 -135 -21 -185 -67
c-48 -44 -72 -107 -72 -172v-72c0 -65 24 -128 72 -172c50 -46 117 -67 185 -67s136 21 186 67c48 44 72 107 72 172v72c0 65 -24 128 -72 172c-50 46 -118 67 -186 67z" />
    <glyph glyph-name="uring" unicode="&#x16f;" 
d="M569 572v-572h-24v101c-11 -25 -30 -47 -54 -64c-49 -35 -109 -47 -169 -47c-63 0 -126 12 -178 47c-41 28 -69 71 -69 120v415h23v-415c0 -43 27 -81 63 -105c47 -31 104 -41 161 -41s114 10 161 41c36 24 62 62 62 105v415h24zM322 790c45 0 106 -19 106 -66v-15
c0 -47 -61 -65 -106 -65s-106 18 -106 65v15c0 47 61 66 106 66zM322 776c-37 0 -90 -14 -90 -52v-15c0 -38 53 -51 90 -51s90 13 90 51v15c0 38 -53 52 -90 52z" />
    <glyph glyph-name="Abreve" unicode="&#x102;" horiz-adv-x="760" 
d="M14 0l316 880h22l-184 -512h422l-184 512h24l317 -880h-25l-125 347h-436l-125 -347h-22zM523 1065v-18c0 -25 -18 -44 -40 -56c-31 -17 -67 -22 -103 -22s-71 5 -102 22c-22 12 -40 31 -40 56v18h20v-18c0 -20 16 -34 34 -43c27 -13 58 -16 88 -16s61 3 88 16
c18 9 34 23 34 43v18h21zM406 880h-54l27 74z" />
    <glyph glyph-name="Scaron" unicode="&#x160;" horiz-adv-x="706" 
d="M605 754l-21 -9c-11 29 -32 54 -57 73c-50 37 -112 51 -174 51c-124 0 -243 -69 -243 -182v-54c0 -109 125 -152 241 -178l39 -9c126 -28 261 -80 261 -199v-54c0 -134 -148 -203 -298 -203c-76 0 -152 14 -215 57c-30 20 -53 47 -68 79l20 10c13 -30 37 -55 65 -74
c58 -38 128 -51 198 -51c137 0 275 60 275 182v54c0 110 -128 152 -245 178l-39 9c-125 28 -257 81 -257 199v54c0 125 129 203 266 203c68 0 137 -16 191 -57c27 -21 48 -48 61 -79zM369 979h-33l-162 132h24l155 -119l155 119h23z" />
    <glyph glyph-name="Ccaron" unicode="&#x10c;" horiz-adv-x="925" 
d="M859 672l-21 -10c-18 38 -43 73 -74 103c-76 72 -180 104 -285 104s-208 -32 -284 -104c-73 -69 -110 -168 -110 -269v-112c0 -101 37 -199 110 -268c76 -72 179 -105 284 -105s209 33 285 105c31 30 56 64 74 102l21 -10c-19 -40 -46 -77 -79 -108
c-81 -76 -190 -110 -301 -110s-219 34 -300 110c-78 73 -117 177 -117 284v112c0 107 39 211 117 284c81 76 189 110 300 110s220 -34 301 -110c33 -31 60 -68 79 -108zM496 979h-33l-162 132h24l155 -119l154 119h24z" />
    <glyph glyph-name="seven" unicode="7" 
d="M55 859v21h527v-21h-527zM582 822v37h24zM582 822v-42l-501 -780h-26z" />
    <glyph glyph-name="ecaron" unicode="&#x11b;" horiz-adv-x="685" 
d="M349 -10c-76 0 -151 22 -207 73c-53 48 -80 116 -80 187v72c0 71 27 139 80 187c56 51 131 73 207 73s151 -22 207 -73c53 -48 81 -116 81 -187v-47h-552v-25c0 -65 26 -128 74 -172c52 -47 120 -67 190 -67s139 20 191 67c16 14 29 30 40 48l19 -12
c-12 -19 -26 -36 -43 -51c-56 -51 -131 -73 -207 -73zM614 322c0 65 -26 128 -74 172c-52 47 -121 67 -191 67s-138 -20 -190 -67c-48 -44 -74 -107 -74 -172v-26h529v26zM366 651h-33l-162 132h24l155 -119l154 119h24z" />
    <glyph glyph-name="two" unicode="2" 
d="M55 0v21c86 85 172 169 258 254c116 114 246 232 246 395v46c0 46 -28 85 -67 110c-51 33 -112 43 -173 43s-123 -10 -174 -43c-24 -15 -44 -37 -56 -62l-22 8c13 28 36 52 62 69c56 37 123 49 190 49s133 -12 189 -49c43 -28 74 -74 74 -125v-46
c0 -171 -136 -296 -258 -416l-236 -233h494v-21h-527z" />
    <glyph glyph-name="six" unicode="6" horiz-adv-x="808" 
d="M404 11c66 0 134 15 186 56c45 35 72 88 72 145v60c0 57 -27 110 -72 145c-52 41 -120 57 -186 57s-133 -16 -185 -57c-45 -35 -73 -88 -73 -145v-60c0 -57 28 -110 73 -145c52 -41 119 -56 185 -56zM404 -10c-73 0 -145 17 -202 62c-49 39 -79 97 -79 160v60
c0 194 164 500 325 608h35c-135 -85 -273 -305 -320 -489c11 15 24 29 39 41c57 45 129 63 202 63s145 -18 202 -63c49 -39 79 -97 79 -160v-60c0 -63 -30 -121 -79 -160c-57 -45 -129 -62 -202 -62z" />
    <glyph glyph-name="breve" unicode="&#x2d8;" horiz-adv-x="397" 
d="M341 835v-18c0 -25 -18 -44 -40 -56c-31 -17 -66 -22 -102 -22s-72 5 -103 22c-22 12 -40 31 -40 56v18h21v-18c0 -20 16 -34 34 -43c27 -13 58 -17 88 -17s61 4 88 17c18 9 34 23 34 43v18h20z" />
    <glyph glyph-name="aacute" unicode="&#xe1;" 
d="M569 0h-24v98c-12 -25 -32 -47 -56 -63c-51 -34 -113 -45 -174 -45c-64 0 -128 11 -182 45c-41 26 -71 68 -71 116v42c0 48 30 90 71 116c54 34 118 45 182 45c61 0 123 -11 174 -45c24 -16 44 -38 56 -63v123c0 53 -23 104 -64 138c-46 38 -106 54 -166 54
c-68 0 -139 -23 -182 -69l-16 15c48 50 124 75 198 75c66 0 133 -17 183 -60c45 -38 71 -94 71 -153v-369zM416 783h29l-223 -132h-24zM315 333c-58 0 -116 -9 -166 -39c-37 -22 -64 -59 -64 -101v-42c0 -42 27 -79 64 -101c50 -30 108 -39 166 -39s116 9 166 39
c37 22 64 59 64 101v42c0 42 -27 79 -64 101c-50 30 -108 39 -166 39z" />
    <glyph glyph-name="X" unicode="X" 
d="M-0 880h28l298 -416l299 416h25l-311 -434l319 -446h-29l-305 426l-305 -426h-26l319 444z" />
    <glyph glyph-name="S" unicode="S" horiz-adv-x="706" 
d="M605 754l-21 -9c-11 29 -32 54 -57 73c-50 37 -112 51 -174 51c-124 0 -243 -69 -243 -182v-54c0 -109 125 -152 241 -178l39 -9c126 -28 261 -80 261 -199v-54c0 -134 -148 -203 -298 -203c-76 0 -152 14 -215 57c-30 20 -53 47 -68 79l20 10c13 -30 37 -55 65 -74
c58 -38 128 -51 198 -51c137 0 275 60 275 182v54c0 110 -128 152 -245 178l-39 9c-125 28 -257 81 -257 199v54c0 125 129 203 266 203c68 0 137 -16 191 -57c27 -21 48 -48 61 -79z" />
    <glyph glyph-name="icircumflex" unicode="&#xee;" horiz-adv-x="192" 
d="M84 0v572h23v-572h-23zM96 770l-155 -119h-23l161 132h33l162 -132h-23z" />
    <glyph glyph-name="Uring" unicode="&#x16e;" horiz-adv-x="808" 
d="M719 880v-642c0 -70 -33 -136 -88 -179c-64 -50 -146 -69 -227 -69s-163 19 -227 69c-55 43 -88 109 -88 179v642h23v-642c0 -64 31 -124 82 -163c59 -46 135 -64 210 -64s151 18 210 64c51 39 82 99 82 163v642h23zM404 1118c45 0 106 -19 106 -66v-15
c0 -47 -61 -65 -106 -65s-106 18 -106 65v15c0 47 61 66 106 66zM404 1104c-37 0 -90 -14 -90 -52v-15c0 -38 53 -51 90 -51s90 13 90 51v15c0 38 -53 52 -90 52z" />
    <glyph glyph-name="u" unicode="u" 
d="M569 572v-572h-24v101c-11 -25 -30 -47 -54 -64c-49 -35 -109 -47 -169 -47c-63 0 -126 12 -178 47c-41 28 -69 71 -69 120v415h23v-415c0 -43 27 -81 63 -105c47 -31 104 -41 161 -41s114 10 161 41c36 24 62 62 62 105v415h24z" />
    <glyph glyph-name="visiblespace" unicode="&#x2420;" horiz-adv-x="548" 
d="M27 0h24v-130h446v130h24v-151h-494v151z" />
    <glyph glyph-name="j" unicode="j" horiz-adv-x="295" 
d="M170 926c0 14 10 24 24 24s24 -10 24 -24s-10 -24 -24 -24s-24 10 -24 24zM205 572v-764c0 -46 -16 -90 -49 -121c-34 -32 -82 -47 -129 -47c-52 0 -104 19 -137 56l17 15c28 -33 74 -50 120 -50c41 0 82 13 112 41c29 27 43 66 43 106v764h23z" />
    <glyph glyph-name="Ocircumflex" unicode="&#xd4;" horiz-adv-x="959" 
d="M479 869c-105 0 -208 -32 -284 -104c-73 -69 -110 -168 -110 -269v-112c0 -101 37 -199 110 -268c76 -72 179 -105 284 -105s209 33 285 105c73 69 110 167 110 268v112c0 101 -37 200 -110 269c-76 72 -180 104 -285 104zM479 890c111 0 220 -34 301 -110
c78 -73 117 -177 117 -284v-112c0 -107 -39 -211 -117 -284c-81 -76 -190 -110 -301 -110s-219 34 -300 110c-78 73 -117 177 -117 284v112c0 107 39 211 117 284c81 76 189 110 300 110zM480 1098l-155 -119h-24l162 132h33l162 -132h-24z" />
    <glyph glyph-name="Eacute" unicode="&#xc9;" horiz-adv-x="637" 
d="M96 0v880h493v-21h-470v-408h459v-21h-459v-409h470v-21h-493zM443 1111h29l-222 -132h-24z" />
    <glyph glyph-name="uacute" unicode="&#xfa;" 
d="M569 572v-572h-24v101c-11 -25 -30 -47 -54 -64c-49 -35 -109 -47 -169 -47c-63 0 -126 12 -178 47c-41 28 -69 71 -69 120v415h23v-415c0 -43 27 -81 63 -105c47 -31 104 -41 161 -41s114 10 161 41c36 24 62 62 62 105v415h24zM423 783h29l-223 -132h-24z" />
    <glyph glyph-name="agrave" unicode="&#xe0;" 
d="M569 0h-24v98c-12 -25 -32 -47 -56 -63c-51 -34 -113 -45 -174 -45c-64 0 -128 11 -182 45c-41 26 -71 68 -71 116v42c0 48 30 90 71 116c54 34 118 45 182 45c61 0 123 -11 174 -45c24 -16 44 -38 56 -63v123c0 53 -23 104 -64 138c-46 38 -106 54 -166 54
c-68 0 -139 -23 -182 -69l-16 15c48 50 124 75 198 75c66 0 133 -17 183 -60c45 -38 71 -94 71 -153v-369zM186 783h28l218 -132h-24zM315 333c-58 0 -116 -9 -166 -39c-37 -22 -64 -59 -64 -101v-42c0 -42 27 -79 64 -101c50 -30 108 -39 166 -39s116 9 166 39
c37 22 64 59 64 101v42c0 42 -27 79 -64 101c-50 30 -108 39 -166 39z" />
    <glyph glyph-name="t" unicode="t" horiz-adv-x="342" 
d="M-6 551v21h166v378h23v-378h165v-21h-165v-551h-23v551h-166z" />
    <glyph glyph-name="Q" unicode="Q" horiz-adv-x="959" 
d="M479 869c-105 0 -208 -32 -284 -104c-73 -69 -110 -168 -110 -269v-112c0 -101 37 -199 110 -268c76 -72 179 -105 284 -105c106 0 211 34 287 107l-103 114h28l89 -100c62 68 94 159 94 252v112c0 101 -37 200 -110 269c-76 72 -180 104 -285 104zM781 101
c-81 -76 -190 -111 -302 -111c-111 0 -219 34 -300 110c-78 73 -117 177 -117 284v112c0 107 39 211 117 284c81 76 189 110 300 110s220 -34 301 -110c78 -73 117 -177 117 -284v-112c0 -100 -34 -197 -102 -269l104 -115h-27z" />
    <glyph glyph-name="semicolon" unicode=";" horiz-adv-x="308" 
d="M114 38h28l34 -178h-20zM109 553c0 11 8 19 19 19s19 -8 19 -19s-8 -19 -19 -19s-19 8 -19 19z" />
    <glyph glyph-name="four" unicode="4" horiz-adv-x="664" 
d="M481 254v-254h-23v254h-416v21h416v605h23v-605h155v-21h-155zM42 275h-16l16 25v-25zM42 300v54l339 526h35zM416 880l42 66v-66h-42z" />
    <glyph glyph-name="J" unicode="J" horiz-adv-x="603" 
d="M514 880v-680c0 -59 -28 -114 -74 -151c-53 -42 -122 -59 -190 -59s-137 17 -190 59c-21 17 -38 38 -51 61l20 11c12 -22 28 -41 48 -57c49 -38 111 -53 173 -53s124 15 173 53c42 33 68 83 68 136v680h23z" />
    <glyph glyph-name="three" unicode="3" horiz-adv-x="637" 
d="M71 785c12 18 26 34 44 48c54 41 122 57 190 57s136 -16 190 -57c46 -35 74 -88 74 -146v-54c0 -58 -28 -112 -74 -147c-30 -22 -63 -37 -99 -46c36 -9 69 -24 99 -46c46 -35 74 -89 74 -147v-54c0 -58 -28 -111 -74 -146c-54 -41 -122 -57 -190 -57s-136 16 -190 57
c-18 14 -32 30 -44 48l19 12c11 -17 25 -32 42 -45c49 -37 111 -51 173 -51s124 14 173 51c41 31 67 79 67 131v54c0 52 -26 101 -67 132c-49 37 -111 51 -173 51v21c62 0 124 13 173 50c41 31 67 80 67 132v54c0 52 -26 100 -67 131c-49 37 -111 51 -173 51
s-124 -14 -173 -51c-16 -12 -29 -26 -40 -42z" />
    <glyph glyph-name="Odieresis" unicode="&#xd6;" horiz-adv-x="959" 
d="M332 1086c0 14 10 25 24 25s25 -11 25 -25s-11 -24 -25 -24s-24 10 -24 24zM578 1086c0 14 11 25 25 25s24 -11 24 -25s-10 -24 -24 -24s-25 10 -25 24zM479 869c-105 0 -208 -32 -284 -104c-73 -69 -110 -168 -110 -269v-112c0 -101 37 -199 110 -268
c76 -72 179 -105 284 -105s209 33 285 105c73 69 110 167 110 268v112c0 101 -37 200 -110 269c-76 72 -180 104 -285 104zM479 890c111 0 220 -34 301 -110c78 -73 117 -177 117 -284v-112c0 -107 -39 -211 -117 -284c-81 -76 -190 -110 -301 -110s-219 34 -300 110
c-78 73 -117 177 -117 284v112c0 107 39 211 117 284c81 76 189 110 300 110z" />
    <glyph glyph-name="Z" unicode="Z" horiz-adv-x="685" 
d="M27 859v21h631v-21h-631zM27 21h-42l42 47v-47zM27 21h631v-21h-631v21zM27 68v32l631 712v-32zM658 812v47h42z" />
    <glyph glyph-name="o" unicode="o" horiz-adv-x="699" 
d="M349 561c-70 0 -138 -20 -190 -67c-48 -44 -74 -107 -74 -172v-72c0 -65 26 -128 74 -172c52 -47 120 -67 190 -67s139 20 191 67c48 44 74 107 74 172v72c0 65 -26 128 -74 172c-52 47 -121 67 -191 67zM349 582c76 0 151 -22 207 -73c53 -48 81 -116 81 -187v-72
c0 -71 -28 -139 -81 -187c-56 -51 -131 -73 -207 -73s-151 22 -207 73c-53 48 -80 116 -80 187v72c0 71 27 139 80 187c56 51 131 73 207 73z" />
    <glyph glyph-name="caron" unicode="&#x2c7;" horiz-adv-x="411" 
d="M222 748h-33l-162 132h24l155 -119l154 119h24z" />
    <glyph glyph-name="O" unicode="O" horiz-adv-x="959" 
d="M479 869c-105 0 -208 -32 -284 -104c-73 -69 -110 -168 -110 -269v-112c0 -101 37 -199 110 -268c76 -72 179 -105 284 -105s209 33 285 105c73 69 110 167 110 268v112c0 101 -37 200 -110 269c-76 72 -180 104 -285 104zM479 890c111 0 220 -34 301 -110
c78 -73 117 -177 117 -284v-112c0 -107 -39 -211 -117 -284c-81 -76 -190 -110 -301 -110s-219 34 -300 110c-78 73 -117 177 -117 284v112c0 107 39 211 117 284c81 76 189 110 300 110z" />
    <glyph glyph-name="H" unicode="H" horiz-adv-x="822" 
d="M96 0v880h23v-429h584v429h23v-880h-23v430h-584v-430h-23z" />
    <glyph glyph-name="quoteleft" unicode="&#x2018;" horiz-adv-x="288" 
d="M111 880h21l41 -189h-28z" />
    <glyph glyph-name="E" unicode="E" horiz-adv-x="637" 
d="M96 0v880h493v-21h-470v-408h459v-21h-459v-409h470v-21h-493z" />
    <glyph glyph-name="F" unicode="F" horiz-adv-x="603" 
d="M96 0v880h493v-21h-470v-408h459v-21h-459v-430h-23z" />
    <glyph glyph-name="V" unicode="V" horiz-adv-x="685" 
d="M-7 880h24l300 -880h-25zM371 0l-27 -79l-27 79h54zM371 0l299 880h22l-300 -880h-21z" />
    <glyph glyph-name="quoteright" unicode="&#x2019;" horiz-adv-x="288" 
d="M107 880h28l35 -189h-21z" />
    <glyph glyph-name="Icircumflex" unicode="&#xce;" horiz-adv-x="242" 
d="M110 0v880h23v-880h-23zM121 1098l-155 -119h-23l162 132h33l162 -132h-24z" />
    <glyph glyph-name="a" unicode="a" 
d="M569 0h-24v98c-12 -25 -32 -47 -56 -63c-51 -34 -113 -45 -174 -45c-64 0 -128 11 -182 45c-41 26 -71 68 -71 116v42c0 48 30 90 71 116c54 34 118 45 182 45c61 0 123 -11 174 -45c24 -16 44 -38 56 -63v123c0 53 -23 104 -64 138c-46 38 -106 54 -166 54
c-68 0 -139 -23 -182 -69l-16 15c48 50 124 75 198 75c66 0 133 -17 183 -60c45 -38 71 -94 71 -153v-369zM315 333c-58 0 -116 -9 -166 -39c-37 -22 -64 -59 -64 -101v-42c0 -42 27 -79 64 -101c50 -30 108 -39 166 -39s116 9 166 39c37 22 64 59 64 101v42
c0 42 -27 79 -64 101c-50 30 -108 39 -166 39z" />
    <glyph glyph-name="l" unicode="l" horiz-adv-x="215" 
d="M96 0v950h23v-950h-23z" />
    <glyph glyph-name="Yacute" unicode="&#xdd;" horiz-adv-x="685" 
d="M-7 880h27l324 -527l323 527h25l-338 -550v-330h-23v330zM443 1111h29l-222 -132h-24z" />
    <glyph glyph-name="zcaron" unicode="&#x17e;" horiz-adv-x="521" 
d="M41 551v21h439v-21h-439zM41 21h-52l52 48v-48zM41 21h439v-21h-439v21zM41 69v31l439 404v-32zM480 504v47h51zM277 651h-33l-162 132h24l154 -119l155 119h24z" />
    <glyph glyph-name="rcaron" unicode="&#x159;" horiz-adv-x="404" 
d="M82 0v572h23v-110c11 27 29 51 52 70c46 36 104 50 162 50c41 0 82 -6 119 -21l-8 -20c-35 15 -73 20 -111 20c-55 0 -110 -12 -154 -44c-36 -27 -60 -68 -60 -113v-404h-23zM282 651h-33l-162 132h24l155 -119l155 119h23z" />
    <glyph glyph-name="gbreve" unicode="&#x11f;" horiz-adv-x="706" 
d="M623 572v-723c0 -60 -30 -115 -78 -151c-58 -43 -131 -58 -203 -58s-144 15 -202 58c-34 25 -59 61 -71 101l22 6c11 -37 34 -68 66 -91c53 -39 119 -53 185 -53s133 14 186 53c44 32 72 81 72 135v327c-12 -39 -34 -75 -64 -104c-52 -49 -123 -72 -194 -72
c-74 0 -147 22 -202 72c-52 47 -78 114 -78 184v70c0 70 26 137 78 184c55 50 128 72 202 72c71 0 142 -23 194 -72c30 -29 52 -65 64 -104v166h23zM485 737v-18c0 -25 -18 -44 -40 -56c-31 -17 -67 -22 -103 -22s-71 5 -102 22c-22 12 -40 31 -40 56v18h20v-18
c0 -20 17 -33 35 -42c27 -13 57 -17 87 -17s61 4 88 17c18 9 35 22 35 42v18h20zM342 561c-68 0 -135 -20 -185 -66c-47 -43 -72 -105 -72 -169v-70c0 -64 25 -126 72 -169c50 -46 117 -66 185 -66s136 20 186 66c47 43 72 105 72 169v70c0 64 -25 126 -72 169
c-50 46 -118 66 -186 66z" />
    <glyph glyph-name="acircumflex" unicode="&#xe2;" 
d="M569 0h-24v98c-12 -25 -32 -47 -56 -63c-51 -34 -113 -45 -174 -45c-64 0 -128 11 -182 45c-41 26 -71 68 -71 116v42c0 48 30 90 71 116c54 34 118 45 182 45c61 0 123 -11 174 -45c24 -16 44 -38 56 -63v123c0 53 -23 104 -64 138c-46 38 -106 54 -166 54
c-68 0 -139 -23 -182 -69l-16 15c48 50 124 75 198 75c66 0 133 -17 183 -60c45 -38 71 -94 71 -153v-369zM315 333c-58 0 -116 -9 -166 -39c-37 -22 -64 -59 -64 -101v-42c0 -42 27 -79 64 -101c50 -30 108 -39 166 -39s116 9 166 39c37 22 64 59 64 101v42
c0 42 -27 79 -64 101c-50 30 -108 39 -166 39zM315 770l-155 -119h-23l162 132h33l161 -132h-23z" />
    <glyph glyph-name="iacute" unicode="&#xed;" horiz-adv-x="192" 
d="M84 0v572h23v-572h-23zM197 783h28l-222 -132h-24z" />
    <glyph glyph-name="dotlessi" unicode="&#x131;" horiz-adv-x="192" 
d="M84 0v572h23v-572h-23z" />
    <glyph glyph-name="aring" unicode="&#xe5;" 
d="M569 0h-24v98c-12 -25 -32 -47 -56 -63c-51 -34 -113 -45 -174 -45c-64 0 -128 11 -182 45c-41 26 -71 68 -71 116v42c0 48 30 90 71 116c54 34 118 45 182 45c61 0 123 -11 174 -45c24 -16 44 -38 56 -63v123c0 53 -23 104 -64 138c-46 38 -106 54 -166 54
c-68 0 -139 -23 -182 -69l-16 15c48 50 124 75 198 75c66 0 133 -17 183 -60c45 -38 71 -94 71 -153v-369zM315 333c-58 0 -116 -9 -166 -39c-37 -22 -64 -59 -64 -101v-42c0 -42 27 -79 64 -101c50 -30 108 -39 166 -39s116 9 166 39c37 22 64 59 64 101v42
c0 42 -27 79 -64 101c-50 30 -108 39 -166 39zM315 790c45 0 106 -19 106 -66v-15c0 -47 -61 -65 -106 -65s-106 18 -106 65v15c0 47 61 66 106 66zM315 776c-37 0 -90 -14 -90 -52v-15c0 -38 53 -51 90 -51s90 13 90 51v15c0 38 -53 52 -90 52z" />
    <glyph glyph-name="U" unicode="U" horiz-adv-x="808" 
d="M719 880v-642c0 -70 -33 -136 -88 -179c-64 -50 -146 -69 -227 -69s-163 19 -227 69c-55 43 -88 109 -88 179v642h23v-642c0 -64 31 -124 82 -163c59 -46 135 -64 210 -64s151 18 210 64c51 39 82 99 82 163v642h23z" />
    <glyph glyph-name="ocircumflex" unicode="&#xf4;" horiz-adv-x="699" 
d="M349 561c-70 0 -138 -20 -190 -67c-48 -44 -74 -107 -74 -172v-72c0 -65 26 -128 74 -172c52 -47 120 -67 190 -67s139 20 191 67c48 44 74 107 74 172v72c0 65 -26 128 -74 172c-52 47 -121 67 -191 67zM349 582c76 0 151 -22 207 -73c53 -48 81 -116 81 -187v-72
c0 -71 -28 -139 -81 -187c-56 -51 -131 -73 -207 -73s-151 22 -207 73c-53 48 -80 116 -80 187v72c0 71 27 139 80 187c56 51 131 73 207 73zM350 770l-155 -119h-24l162 132h33l162 -132h-24z" />
    <glyph glyph-name="zacute" unicode="&#x17a;" horiz-adv-x="521" 
d="M41 551v21h439v-21h-439zM361 783h29l-222 -132h-24zM41 21h-52l52 48v-48zM41 21h439v-21h-439v21zM41 69v31l439 404v-32zM480 504v47h51z" />
    <glyph glyph-name="yacute" unicode="&#xfd;" horiz-adv-x="562" 
d="M0 572h25l257 -543l257 543h23l-436 -922h-23l165 350h2zM382 783h28l-222 -132h-24z" />
    <glyph glyph-name="P" unicode="P" horiz-adv-x="699" 
d="M96 0v880h255c79 0 159 -18 221 -66c53 -41 86 -104 86 -171v-65c0 -67 -33 -129 -86 -170c-62 -48 -142 -66 -221 -66h-232v-342h-23zM119 859v-496h232c73 0 146 16 204 60c49 37 79 94 79 155v65c0 61 -30 119 -79 156c-58 44 -131 60 -204 60h-232z" />
    <glyph glyph-name="plus" unicode="+" horiz-adv-x="699" 
d="M338 572h23v-276h269v-21h-269v-275h-23v275h-270v21h270v276z" />
    <glyph glyph-name="sacute" unicode="&#x15b;" horiz-adv-x="562" 
d="M382 783h28l-222 -132h-24zM281 582c82 0 169 -29 198 -94l-21 -9c-25 58 -105 82 -177 82c-91 0 -184 -35 -184 -115v-34c0 -78 98 -95 181 -112l32 -7c95 -19 204 -44 204 -133v-34c0 -99 -119 -136 -233 -136c-88 0 -189 27 -223 94l20 10c29 -61 124 -83 203 -83
c102 0 210 27 210 115v34c0 80 -100 95 -185 112l-33 7c-94 19 -199 45 -199 133v34c0 91 104 136 207 136z" />
    <glyph glyph-name="eacute" unicode="&#xe9;" horiz-adv-x="685" 
d="M450 783h29l-222 -132h-24zM349 -10c-76 0 -151 22 -207 73c-53 48 -80 116 -80 187v72c0 71 27 139 80 187c56 51 131 73 207 73s151 -22 207 -73c53 -48 81 -116 81 -187v-47h-552v-25c0 -65 26 -128 74 -172c52 -47 120 -67 190 -67s139 20 191 67c16 14 29 30 40 48
l19 -12c-12 -19 -26 -36 -43 -51c-56 -51 -131 -73 -207 -73zM614 322c0 65 -26 128 -74 172c-52 47 -121 67 -191 67s-138 -20 -190 -67c-48 -44 -74 -107 -74 -172v-26h529v26z" />
    <glyph glyph-name="T" unicode="T" horiz-adv-x="630" 
d="M1 859v21h628v-21h-302v-859h-23v859h-303z" />
    <glyph glyph-name="zero" unicode="0" horiz-adv-x="671" 
d="M336 869c-76 0 -152 -29 -195 -91c-56 -81 -63 -183 -63 -282v-112c0 -99 7 -201 63 -282c43 -62 119 -91 195 -91s152 29 195 91c56 81 62 183 62 282v112c0 99 -6 201 -62 282c-43 62 -119 91 -195 91zM336 890c83 0 164 -29 212 -96c61 -85 68 -193 68 -298v-112
c0 -105 -7 -213 -68 -298c-48 -67 -129 -96 -212 -96s-165 29 -213 96c-61 85 -68 193 -68 298v112c0 105 7 213 68 298c48 67 130 96 213 96z" />
    <glyph glyph-name="dotlessj" unicode="&#x237;" horiz-adv-x="295" 
d="M205 572v-764c0 -46 -16 -90 -49 -121c-34 -32 -82 -47 -129 -47c-52 0 -104 19 -137 56l17 15c28 -33 74 -50 120 -50c41 0 82 13 112 41c29 27 43 66 43 106v764h23z" />
    <glyph glyph-name="endash" unicode="&#x2013;" horiz-adv-x="671" 
d="M55 275v21h561v-21h-561z" />
    <glyph glyph-name="odieresis" unicode="&#xf6;" horiz-adv-x="699" 
d="M202 758c0 14 10 25 24 25s24 -11 24 -25s-10 -24 -24 -24s-24 10 -24 24zM448 758c0 14 11 25 25 25s24 -11 24 -25s-10 -24 -24 -24s-25 10 -25 24zM349 561c-70 0 -138 -20 -190 -67c-48 -44 -74 -107 -74 -172v-72c0 -65 26 -128 74 -172c52 -47 120 -67 190 -67
s139 20 191 67c48 44 74 107 74 172v72c0 65 -26 128 -74 172c-52 47 -121 67 -191 67zM349 582c76 0 151 -22 207 -73c53 -48 81 -116 81 -187v-72c0 -71 -28 -139 -81 -187c-56 -51 -131 -73 -207 -73s-151 22 -207 73c-53 48 -80 116 -80 187v72c0 71 27 139 80 187
c56 51 131 73 207 73z" />
    <glyph glyph-name="K" unicode="K" horiz-adv-x="726" 
d="M96 880h23v-441l183 140c132 100 264 201 396 301h28l-399 -303l399 -577h-28l-387 565l-192 -146v-419h-23v880z" />
    <glyph glyph-name="emdash" unicode="&#x2014;" horiz-adv-x="1014" 
d="M55 275v21h904v-21h-904z" />
    <glyph glyph-name="dotaccent" unicode="&#x2d9;" horiz-adv-x="192" 
d="M102 861c0 11 8 19 19 19s19 -8 19 -19s-8 -19 -19 -19s-19 8 -19 19z" />
    <glyph glyph-name="egrave" unicode="&#xe8;" horiz-adv-x="685" 
d="M220 783h28l218 -132h-24zM349 -10c-76 0 -151 22 -207 73c-53 48 -80 116 -80 187v72c0 71 27 139 80 187c56 51 131 73 207 73s151 -22 207 -73c53 -48 81 -116 81 -187v-47h-552v-25c0 -65 26 -128 74 -172c52 -47 120 -67 190 -67s139 20 191 67c16 14 29 30 40 48
l19 -12c-12 -19 -26 -36 -43 -51c-56 -51 -131 -73 -207 -73zM614 322c0 65 -26 128 -74 172c-52 47 -121 67 -191 67s-138 -20 -190 -67c-48 -44 -74 -107 -74 -172v-26h529v26z" />
    <glyph glyph-name="M" unicode="M" horiz-adv-x="1062" 
d="M96 0v880h21v-880h-21zM943 880h-54l54 155v-155zM943 880h23v-880h-23v880zM889 880l-309 -880h-23l309 880h23zM557 0l-26 -75l-26 75h52zM505 0h-25l-309 880h25zM171 880h-54v154z" />
    <glyph glyph-name="G" unicode="G" horiz-adv-x="973" 
d="M897 0h-23v246c-19 -55 -51 -105 -94 -146c-81 -76 -190 -110 -301 -110s-219 34 -300 110c-78 73 -117 177 -117 284v112c0 107 39 211 117 284c81 76 189 110 300 110s220 -34 301 -110c31 -30 57 -64 76 -102l-21 -11c-18 36 -41 70 -71 98c-76 72 -180 104 -285 104
s-208 -32 -284 -104c-73 -69 -110 -168 -110 -269v-112c0 -101 37 -199 110 -268c76 -72 179 -105 284 -105s209 33 285 105c73 69 110 167 110 268v46h-395v21h418v-451z" />
    <glyph glyph-name="ydieresis" unicode="&#xff;" horiz-adv-x="562" 
d="M0 572h25l257 -543l257 543h23l-436 -922h-23l165 350h2zM133 758c0 14 11 25 25 25s24 -11 24 -25s-10 -24 -24 -24s-25 10 -25 24zM380 758c0 14 10 25 24 25s25 -11 25 -25s-11 -24 -25 -24s-24 10 -24 24z" />
    <glyph glyph-name="ograve" unicode="&#xf2;" horiz-adv-x="699" 
d="M220 783h28l218 -132h-24zM349 561c-70 0 -138 -20 -190 -67c-48 -44 -74 -107 -74 -172v-72c0 -65 26 -128 74 -172c52 -47 120 -67 190 -67s139 20 191 67c48 44 74 107 74 172v72c0 65 -26 128 -74 172c-52 47 -121 67 -191 67zM349 582c76 0 151 -22 207 -73
c53 -48 81 -116 81 -187v-72c0 -71 -28 -139 -81 -187c-56 -51 -131 -73 -207 -73s-151 22 -207 73c-53 48 -80 116 -80 187v72c0 71 27 139 80 187c56 51 131 73 207 73z" />
    <glyph glyph-name="edieresis" unicode="&#xeb;" horiz-adv-x="685" 
d="M202 758c0 14 10 25 24 25s24 -11 24 -25s-10 -24 -24 -24s-24 10 -24 24zM448 758c0 14 11 25 25 25s24 -11 24 -25s-10 -24 -24 -24s-25 10 -25 24zM349 -10c-76 0 -151 22 -207 73c-53 48 -80 116 -80 187v72c0 71 27 139 80 187c56 51 131 73 207 73s151 -22 207 -73
c53 -48 81 -116 81 -187v-47h-552v-25c0 -65 26 -128 74 -172c52 -47 120 -67 190 -67s139 20 191 67c16 14 29 30 40 48l19 -12c-12 -19 -26 -36 -43 -51c-56 -51 -131 -73 -207 -73zM614 322c0 65 -26 128 -74 172c-52 47 -121 67 -191 67s-138 -20 -190 -67
c-48 -44 -74 -107 -74 -172v-26h529v26z" />
    <glyph glyph-name="ccaron" unicode="&#x10d;" horiz-adv-x="682" 
d="M349 -10c-76 0 -151 22 -207 73c-53 48 -80 116 -80 187v72c0 71 27 139 80 187c56 51 131 73 207 73s151 -22 207 -73c23 -21 43 -47 56 -75l-21 -9c-12 26 -29 49 -51 69c-52 47 -121 67 -191 67s-138 -20 -190 -67c-48 -44 -74 -107 -74 -172v-72
c0 -65 26 -128 74 -172c52 -47 120 -67 190 -67s139 20 191 67c22 20 39 43 51 69l21 -10c-13 -28 -33 -53 -56 -74c-56 -51 -131 -73 -207 -73zM366 651h-33l-162 132h24l155 -119l154 119h24z" />
    <glyph glyph-name="e" unicode="e" horiz-adv-x="685" 
d="M349 -10c-76 0 -151 22 -207 73c-53 48 -80 116 -80 187v72c0 71 27 139 80 187c56 51 131 73 207 73s151 -22 207 -73c53 -48 81 -116 81 -187v-47h-552v-25c0 -65 26 -128 74 -172c52 -47 120 -67 190 -67s139 20 191 67c16 14 29 30 40 48l19 -12
c-12 -19 -26 -36 -43 -51c-56 -51 -131 -73 -207 -73zM614 322c0 65 -26 128 -74 172c-52 47 -121 67 -191 67s-138 -20 -190 -67c-48 -44 -74 -107 -74 -172v-26h529v26z" />
    <glyph glyph-name="acute" unicode="&#xb4;" horiz-adv-x="308" 
d="M255 880h29l-223 -132h-24z" />
    <glyph glyph-name="m" unicode="m" horiz-adv-x="993" 
d="M82 0v572h23v-104c11 27 31 50 56 67c51 35 113 47 174 47c47 0 93 -15 127 -47c23 -21 38 -48 45 -78c11 31 33 58 61 78c51 35 113 47 174 47c47 0 93 -15 127 -47c33 -31 49 -75 49 -120v-415h-23v415c0 40 -14 78 -43 105c-29 28 -69 41 -110 41
c-58 0 -117 -10 -166 -41c-37 -24 -64 -61 -64 -105v-415h-24v415c0 40 -13 78 -42 105c-29 28 -70 41 -111 41c-58 0 -116 -10 -165 -41c-37 -24 -65 -61 -65 -105v-415h-23z" />
    <glyph glyph-name="p" unicode="p" horiz-adv-x="706" 
d="M82 -350v922h23v-171c12 41 33 78 64 108c52 50 122 73 194 73c74 0 148 -23 202 -73c52 -48 79 -116 79 -187v-72c0 -71 -27 -139 -79 -187c-54 -50 -128 -73 -202 -73c-72 0 -142 23 -194 73c-31 30 -52 67 -64 108v-521h-23zM363 561c-68 0 -136 -21 -186 -67
c-48 -44 -72 -107 -72 -172v-72c0 -65 24 -128 72 -172c50 -46 118 -67 186 -67s136 21 186 67c48 44 72 107 72 172v72c0 65 -24 128 -72 172c-50 46 -118 67 -186 67z" />
    <glyph glyph-name="z" unicode="z" horiz-adv-x="521" 
d="M41 551v21h439v-21h-439zM41 21h-52l52 48v-48zM41 21h439v-21h-439v21zM41 69v31l439 404v-32zM480 504v47h51z" />
    <glyph glyph-name="Zacute" unicode="&#x179;" horiz-adv-x="685" 
d="M27 859v21h631v-21h-631zM443 1111h29l-222 -132h-24zM27 21h-42l42 47v-47zM27 21h631v-21h-631v21zM27 68v32l631 712v-32zM658 812v47h42z" />
    <glyph glyph-name="Edieresis" unicode="&#xcb;" horiz-adv-x="637" 
d="M96 0v880h493v-21h-470v-408h459v-21h-459v-409h470v-21h-493zM195 1086c0 14 10 25 24 25s25 -11 25 -25s-11 -24 -25 -24s-24 10 -24 24zM441 1086c0 14 11 25 25 25s24 -11 24 -25s-10 -24 -24 -24s-25 10 -25 24z" />
    <glyph glyph-name="Dcaron" unicode="&#x10e;" horiz-adv-x="856" 
d="M96 0v880h251c117 0 233 -32 322 -108c81 -69 126 -172 126 -278v-108c0 -106 -45 -209 -126 -278c-89 -76 -205 -108 -322 -108h-251zM119 21h228c111 0 222 30 306 102c76 66 118 162 118 263v108c0 101 -42 197 -118 263c-84 72 -195 102 -306 102h-228v-838zM386 979
h-33l-161 132h23l155 -119l155 119h23z" />
    <glyph glyph-name="Racute" unicode="&#x154;" horiz-adv-x="692" 
d="M96 0v880h255c78 0 157 -16 221 -61c52 -37 86 -94 86 -157v-59c0 -63 -34 -120 -86 -157c-45 -32 -98 -50 -153 -57l239 -389h-29l-235 387c-14 -1 -29 -2 -43 -2h-232v-385h-23zM416 1111h29l-223 -132h-24zM119 859v-453h232c72 0 145 15 204 56c47 33 79 84 79 141
v59c0 57 -32 109 -79 142c-59 41 -132 55 -204 55h-232z" />
    <glyph glyph-name="b" unicode="b" horiz-adv-x="719" 
d="M96 0v950h23v-547c12 40 34 76 64 106c52 50 122 73 194 73c74 0 148 -23 202 -73c52 -48 79 -116 79 -187v-72c0 -71 -27 -139 -79 -187c-54 -50 -128 -73 -202 -73c-72 0 -142 23 -194 73c-30 30 -52 66 -64 106v-169h-23zM377 561c-68 0 -136 -21 -186 -67
c-48 -44 -72 -107 -72 -172v-72c0 -65 24 -128 72 -172c50 -46 118 -67 186 -67s135 21 185 67c48 44 72 107 72 172v72c0 65 -24 128 -72 172c-50 46 -117 67 -185 67z" />
    <glyph glyph-name="one" unicode="1" horiz-adv-x="534" 
d="M232 880l44 90v-90h-44zM232 880l-157 -319h-33l157 319h33zM276 880h23v-880h-23v880z" />
    <glyph glyph-name="R" unicode="R" horiz-adv-x="692" 
d="M96 0v880h255c78 0 157 -16 221 -61c52 -37 86 -94 86 -157v-59c0 -63 -34 -120 -86 -157c-45 -32 -98 -50 -153 -57l239 -389h-29l-235 387c-14 -1 -29 -2 -43 -2h-232v-385h-23zM119 859v-453h232c72 0 145 15 204 56c47 33 79 84 79 141v59c0 57 -32 109 -79 142
c-59 41 -132 55 -204 55h-232z" />
    <glyph glyph-name="ecircumflex" unicode="&#xea;" horiz-adv-x="685" 
d="M349 -10c-76 0 -151 22 -207 73c-53 48 -80 116 -80 187v72c0 71 27 139 80 187c56 51 131 73 207 73s151 -22 207 -73c53 -48 81 -116 81 -187v-47h-552v-25c0 -65 26 -128 74 -172c52 -47 120 -67 190 -67s139 20 191 67c16 14 29 30 40 48l19 -12
c-12 -19 -26 -36 -43 -51c-56 -51 -131 -73 -207 -73zM614 322c0 65 -26 128 -74 172c-52 47 -121 67 -191 67s-138 -20 -190 -67c-48 -44 -74 -107 -74 -172v-26h529v26zM350 770l-155 -119h-24l162 132h33l162 -132h-24z" />
    <glyph glyph-name="ampersand" unicode="&#x26;" horiz-adv-x="808" 
d="M324 440c-97 19 -201 87 -201 193v54c0 60 36 113 87 146c66 43 145 57 224 57s157 -14 223 -57c20 -13 38 -29 52 -48l-18 -13c-14 18 -30 34 -50 46c-61 39 -135 51 -207 51s-146 -12 -207 -51c-46 -29 -81 -77 -81 -131v-54c0 -54 35 -103 81 -132
c61 -39 135 -50 207 -50h396v-21h-86v-237c0 -60 -36 -113 -87 -146c-66 -43 -144 -57 -223 -57s-158 14 -224 57c-51 33 -87 86 -87 146v54c0 60 36 114 87 147c35 23 73 37 114 46zM721 430h-287c-72 0 -146 -12 -207 -51c-46 -29 -81 -78 -81 -132v-54
c0 -54 35 -102 81 -131c61 -39 135 -51 207 -51s146 12 207 51c46 29 80 77 80 131v237z" />
    <glyph glyph-name="Ucircumflex" unicode="&#xdb;" horiz-adv-x="808" 
d="M719 880v-642c0 -70 -33 -136 -88 -179c-64 -50 -146 -69 -227 -69s-163 19 -227 69c-55 43 -88 109 -88 179v642h23v-642c0 -64 31 -124 82 -163c59 -46 135 -64 210 -64s151 18 210 64c51 39 82 99 82 163v642h23zM404 1098l-155 -119h-23l162 132h33l162 -132h-24z
" />
    <glyph glyph-name="Tcaron" unicode="&#x164;" horiz-adv-x="630" 
d="M1 859v21h628v-21h-302v-859h-23v859h-303zM332 979h-33l-162 132h23l155 -119l155 119h23z" />
    <glyph glyph-name="hyphen" unicode="-" horiz-adv-x="432" 
d="M55 275v21h322v-21h-322z" />
    <glyph glyph-name="N" unicode="N" horiz-adv-x="856" 
d="M97 0v880h21v-880h-21zM738 0v-96l-53 96h53zM738 0v880h21v-880h-21zM685 0h-26l-488 880h26zM171 880h-53v96z" />
    <glyph glyph-name="Udieresis" unicode="&#xdc;" horiz-adv-x="808" 
d="M719 880v-642c0 -70 -33 -136 -88 -179c-64 -50 -146 -69 -227 -69s-163 19 -227 69c-55 43 -88 109 -88 179v642h23v-642c0 -64 31 -124 82 -163c59 -46 135 -64 210 -64s151 18 210 64c51 39 82 99 82 163v642h23zM256 1086c0 14 11 25 25 25s24 -11 24 -25
s-10 -24 -24 -24s-25 10 -25 24zM503 1086c0 14 10 25 24 25s25 -11 25 -25s-11 -24 -25 -24s-24 10 -24 24z" />
    <glyph glyph-name="ncaron" unicode="&#x148;" 
d="M105 464c39 84 161 118 269 118c52 0 105 -14 145 -47c36 -30 56 -73 56 -120v-415h-23v415c0 41 -18 79 -50 105c-36 29 -82 41 -128 41c-67 0 -135 -9 -194 -41c-41 -22 -75 -59 -75 -105v-415h-23v572h23v-108zM345 651h-33l-162 132h24l155 -119l155 119h23z" />
    <glyph glyph-name="cacute" unicode="&#x107;" horiz-adv-x="682" 
d="M450 783h29l-222 -132h-24zM349 -10c-76 0 -151 22 -207 73c-53 48 -80 116 -80 187v72c0 71 27 139 80 187c56 51 131 73 207 73s151 -22 207 -73c23 -21 43 -47 56 -75l-21 -9c-12 26 -29 49 -51 69c-52 47 -121 67 -191 67s-138 -20 -190 -67
c-48 -44 -74 -107 -74 -172v-72c0 -65 26 -128 74 -172c52 -47 120 -67 190 -67s139 20 191 67c22 20 39 43 51 69l21 -10c-13 -28 -33 -53 -56 -74c-56 -51 -131 -73 -207 -73z" />
    <glyph glyph-name="oacute" unicode="&#xf3;" horiz-adv-x="699" 
d="M450 783h29l-222 -132h-24zM349 561c-70 0 -138 -20 -190 -67c-48 -44 -74 -107 -74 -172v-72c0 -65 26 -128 74 -172c52 -47 120 -67 190 -67s139 20 191 67c48 44 74 107 74 172v72c0 65 -26 128 -74 172c-52 47 -121 67 -191 67zM349 582c76 0 151 -22 207 -73
c53 -48 81 -116 81 -187v-72c0 -71 -28 -139 -81 -187c-56 -51 -131 -73 -207 -73s-151 22 -207 73c-53 48 -80 116 -80 187v72c0 71 27 139 80 187c56 51 131 73 207 73z" />
    <glyph glyph-name="period" unicode="." horiz-adv-x="242" 
d="M102 19c0 11 8 19 19 19s19 -8 19 -19s-8 -19 -19 -19s-19 8 -19 19z" />
    <glyph glyph-name="abreve" unicode="&#x103;" 
d="M569 0h-24v98c-12 -25 -32 -47 -56 -63c-51 -34 -113 -45 -174 -45c-64 0 -128 11 -182 45c-41 26 -71 68 -71 116v42c0 48 30 90 71 116c54 34 118 45 182 45c61 0 123 -11 174 -45c24 -16 44 -38 56 -63v123c0 53 -23 104 -64 138c-46 38 -106 54 -166 54
c-68 0 -139 -23 -182 -69l-16 15c48 50 124 75 198 75c66 0 133 -17 183 -60c45 -38 71 -94 71 -153v-369zM315 641c-57 0 -142 18 -142 78v18h20v-18c0 -20 16 -33 34 -42c27 -13 58 -17 88 -17s61 4 88 17c18 9 34 22 34 42v18h21v-18c0 -25 -18 -44 -40 -56
c-31 -17 -67 -22 -103 -22zM315 333c-58 0 -116 -9 -166 -39c-37 -22 -64 -59 -64 -101v-42c0 -42 27 -79 64 -101c50 -30 108 -39 166 -39s116 9 166 39c37 22 64 59 64 101v42c0 42 -27 79 -64 101c-50 30 -108 39 -166 39z" />
    <glyph glyph-name="Sacute" unicode="&#x15a;" horiz-adv-x="706" 
d="M605 754l-21 -9c-11 29 -32 54 -57 73c-50 37 -112 51 -174 51c-124 0 -243 -69 -243 -182v-54c0 -109 125 -152 241 -178l39 -9c126 -28 261 -80 261 -199v-54c0 -134 -148 -203 -298 -203c-76 0 -152 14 -215 57c-30 20 -53 47 -68 79l20 10c13 -30 37 -55 65 -74
c58 -38 128 -51 198 -51c137 0 275 60 275 182v54c0 110 -128 152 -245 178l-39 9c-125 28 -257 81 -257 199v54c0 125 129 203 266 203c68 0 137 -16 191 -57c27 -21 48 -48 61 -79zM454 1111h28l-222 -132h-24z" />
    <glyph glyph-name="grave" unicode="`" horiz-adv-x="308" 
d="M25 880h28l218 -132h-24z" />
    <glyph glyph-name="Cacute" unicode="&#x106;" horiz-adv-x="925" 
d="M859 672l-21 -10c-18 38 -43 73 -74 103c-76 72 -180 104 -285 104s-208 -32 -284 -104c-73 -69 -110 -168 -110 -269v-112c0 -101 37 -199 110 -268c76 -72 179 -105 284 -105s209 33 285 105c31 30 56 64 74 102l21 -10c-19 -40 -46 -77 -79 -108
c-81 -76 -190 -110 -301 -110s-219 34 -300 110c-78 73 -117 177 -117 284v112c0 107 39 211 117 284c81 76 189 110 300 110s220 -34 301 -110c33 -31 60 -68 79 -108zM580 1111h29l-222 -132h-24z" />
    <glyph glyph-name="lacute" unicode="&#x13a;" horiz-adv-x="215" 
d="M96 0v950h23v-950h-23zM216 1187h29l-222 -131h-24z" />
    <glyph glyph-name="ugrave" unicode="&#xf9;" 
d="M569 572v-572h-24v101c-11 -25 -30 -47 -54 -64c-49 -35 -109 -47 -169 -47c-63 0 -126 12 -178 47c-41 28 -69 71 -69 120v415h23v-415c0 -43 27 -81 63 -105c47 -31 104 -41 161 -41s114 10 161 41c36 24 62 62 62 105v415h24zM193 783h28l217 -132h-23z" />
    <glyph glyph-name="Adieresis" unicode="&#xc4;" horiz-adv-x="760" 
d="M14 0l316 880h22l-184 -512h422l-184 512h24l317 -880h-25l-125 347h-436l-125 -347h-22zM232 1086c0 14 11 25 25 25s24 -11 24 -25s-10 -24 -24 -24s-25 10 -25 24zM479 1086c0 14 10 25 24 25s25 -11 25 -25s-11 -24 -25 -24s-24 10 -24 24zM406 880h-54l27 74z" />
    <glyph glyph-name="A" unicode="A" horiz-adv-x="760" 
d="M14 0l316 880h22l-184 -512h422l-184 512h24l317 -880h-25l-125 347h-436l-125 -347h-22zM406 880h-54l27 74z" />
    <glyph glyph-name="C" unicode="C" horiz-adv-x="925" 
d="M859 672l-21 -10c-18 38 -43 73 -74 103c-76 72 -180 104 -285 104s-208 -32 -284 -104c-73 -69 -110 -168 -110 -269v-112c0 -101 37 -199 110 -268c76 -72 179 -105 284 -105s209 33 285 105c31 30 56 64 74 102l21 -10c-19 -40 -46 -77 -79 -108
c-81 -76 -190 -110 -301 -110s-219 34 -300 110c-78 73 -117 177 -117 284v112c0 107 39 211 117 284c81 76 189 110 300 110s220 -34 301 -110c33 -31 60 -68 79 -108z" />
    <glyph glyph-name="comma" unicode="," horiz-adv-x="288" 
d="M107 38h28l35 -178h-21z" />
    <glyph glyph-name="colon" unicode=":" horiz-adv-x="242" 
d="M102 19c0 11 8 19 19 19s19 -8 19 -19s-8 -19 -19 -19s-19 8 -19 19zM102 553c0 11 8 19 19 19s19 -8 19 -19s-8 -19 -19 -19s-19 8 -19 19z" />
    <glyph glyph-name="Ecaron" unicode="&#x11a;" horiz-adv-x="637" 
d="M96 0v880h493v-21h-470v-408h459v-21h-459v-409h470v-21h-493zM359 979h-33l-162 132h24l154 -119l155 119h24z" />
    <glyph glyph-name="idieresis" unicode="&#xef;" horiz-adv-x="192" 
d="M84 0v572h23v-572h-23zM-52 758c0 14 11 25 25 25s24 -11 24 -25s-10 -24 -24 -24s-25 10 -25 24zM195 758c0 14 10 25 24 25s25 -11 25 -25s-11 -24 -25 -24s-24 10 -24 24z" />
    <glyph glyph-name="exclam" unicode="!" horiz-adv-x="297" 
d="M137 170v710h23v-710h-23zM130 19c0 11 8 19 19 19s18 -8 18 -19s-7 -19 -18 -19s-19 8 -19 19z" />
    <glyph glyph-name="Aring" unicode="&#xc5;" horiz-adv-x="760" 
d="M14 0l316 880h22l-184 -512h422l-184 512h24l317 -880h-25l-125 347h-436l-125 -347h-22zM406 880h-54l27 74zM380 1118c45 0 106 -19 106 -66v-15c0 -47 -61 -65 -106 -65s-106 18 -106 65v15c0 47 61 66 106 66zM380 1104c-37 0 -90 -14 -90 -52v-15
c0 -38 53 -51 90 -51s91 13 91 51v15c0 38 -54 52 -91 52z" />
    <glyph glyph-name="dieresis" unicode="&#xa8;" horiz-adv-x="411" 
d="M58 856c0 14 10 24 24 24s25 -10 25 -24s-11 -25 -25 -25s-24 11 -24 25zM304 856c0 14 11 24 25 24s24 -10 24 -24s-10 -25 -24 -25s-25 11 -25 25z" />
    <glyph glyph-name="I" unicode="I" horiz-adv-x="242" 
d="M110 0v880h23v-880h-23z" />
    <glyph glyph-name="udieresis" unicode="&#xfc;" 
d="M569 572v-572h-24v101c-11 -25 -30 -47 -54 -64c-49 -35 -109 -47 -169 -47c-63 0 -126 12 -178 47c-41 28 -69 71 -69 120v415h23v-415c0 -43 27 -81 63 -105c47 -31 104 -41 161 -41s114 10 161 41c36 24 62 62 62 105v415h24zM174 758c0 14 11 25 25 25s24 -11 24 -25
s-10 -24 -24 -24s-25 10 -25 24zM421 758c0 14 10 25 24 25s25 -11 25 -25s-11 -24 -25 -24s-24 10 -24 24z" />
    <glyph glyph-name="igrave" unicode="&#xec;" horiz-adv-x="192" 
d="M84 0v572h23v-572h-23zM-33 783h28l217 -132h-23z" />
    <glyph glyph-name="quotedbl" unicode="&#x22;" horiz-adv-x="425" 
d="M68 880h24v-308h-24v308zM356 880v-308h-23v308h23z" />
    <glyph glyph-name="five" unicode="5" horiz-adv-x="658" 
d="M76 859v-449c58 80 152 129 252 129c72 0 144 -20 198 -68c50 -44 77 -108 77 -174v-66c0 -67 -28 -130 -79 -173c-56 -48 -129 -68 -202 -68s-146 20 -202 68c-27 23 -49 53 -62 85l22 8c12 -30 31 -56 56 -78c51 -44 119 -62 186 -62s135 18 186 62c46 40 72 97 72 158
v66c0 61 -25 119 -71 159c-50 43 -115 62 -181 62c-101 0 -195 -50 -252 -133h-23v495h538v-21h-515z" />
    <glyph glyph-name="Agrave" unicode="&#xc0;" horiz-adv-x="760" 
d="M14 0l316 880h22l-184 -512h422l-184 512h24l317 -880h-25l-125 347h-436l-125 -347h-22zM251 1111h28l218 -132h-24zM406 880h-54l27 74z" />
    <glyph glyph-name="W" unicode="W" horiz-adv-x="1041" 
d="M0 880h24l314 -880h-24zM392 0l-27 -75l-27 75h54zM392 0l117 331l-195 549h24l184 -515l183 515h22l-194 -546l119 -334h-25l-107 299l-106 -299h-22zM706 0l-27 -75l-27 75h54zM706 0l313 880h22l-314 -880h-21z" />
    <glyph glyph-name="Egrave" unicode="&#xc8;" horiz-adv-x="637" 
d="M96 0v880h493v-21h-470v-408h459v-21h-459v-409h470v-21h-493zM213 1111h29l217 -132h-24z" />
    <glyph glyph-name="s" unicode="s" horiz-adv-x="562" 
d="M281 582c82 0 169 -29 198 -94l-21 -9c-25 58 -105 82 -177 82c-91 0 -184 -35 -184 -115v-34c0 -78 98 -95 181 -112l32 -7c95 -19 204 -44 204 -133v-34c0 -99 -119 -136 -233 -136c-88 0 -189 27 -223 94l20 10c29 -61 124 -83 203 -83c102 0 210 27 210 115v34
c0 80 -100 95 -185 112l-33 7c-94 19 -199 45 -199 133v34c0 91 104 136 207 136z" />
    <glyph glyph-name="Acircumflex" unicode="&#xc2;" horiz-adv-x="760" 
d="M14 0l316 880h22l-184 -512h422l-184 512h24l317 -880h-25l-125 347h-436l-125 -347h-22zM406 880h-54l27 74zM380 1098l-155 -119h-23l162 132h33l162 -132h-24z" />
    <glyph glyph-name="f" unicode="f" horiz-adv-x="404" 
d="M12 551v21h172v239c0 71 35 149 108 149c35 0 66 -21 84 -50l-19 -12c-14 23 -37 41 -65 41c-60 0 -85 -70 -85 -128v-239h172v-21h-172v-551h-23v551h-172z" />
    <glyph glyph-name="nine" unicode="9" horiz-adv-x="808" 
d="M404 869c-66 0 -133 -15 -185 -56c-45 -35 -73 -88 -73 -145v-60c0 -57 28 -110 73 -145c52 -41 119 -57 185 -57s134 16 186 57c45 35 72 88 72 145v60c0 57 -27 110 -72 145c-52 41 -120 56 -186 56zM404 890c73 0 145 -17 202 -62c49 -39 79 -97 79 -160v-60
c0 -194 -164 -500 -325 -608h-35c135 85 273 305 320 489c-11 -15 -24 -29 -39 -41c-57 -45 -129 -63 -202 -63s-145 18 -202 63c-49 39 -79 97 -79 160v60c0 63 30 121 79 160c57 45 129 62 202 62z" />
    <glyph glyph-name="i" unicode="i" horiz-adv-x="201" 
d="M89 0v572h23v-572h-23zM76 926c0 14 11 24 25 24s24 -10 24 -24s-10 -25 -24 -25s-25 11 -25 25z" />
    <glyph glyph-name="Ydieresis" unicode="&#x178;" horiz-adv-x="685" 
d="M-7 880h27l324 -527l323 527h25l-338 -550v-330h-23v330zM195 1086c0 14 10 25 24 25s25 -11 25 -25s-11 -24 -25 -24s-24 10 -24 24zM441 1086c0 14 11 25 25 25s24 -11 24 -25s-10 -24 -24 -24s-25 10 -25 24z" />
    <glyph glyph-name="c" unicode="c" horiz-adv-x="682" 
d="M349 -10c-76 0 -151 22 -207 73c-53 48 -80 116 -80 187v72c0 71 27 139 80 187c56 51 131 73 207 73s151 -22 207 -73c23 -21 43 -47 56 -75l-21 -9c-12 26 -29 49 -51 69c-52 47 -121 67 -191 67s-138 -20 -190 -67c-48 -44 -74 -107 -74 -172v-72
c0 -65 26 -128 74 -172c52 -47 120 -67 190 -67s139 20 191 67c22 20 39 43 51 69l21 -10c-13 -28 -33 -53 -56 -74c-56 -51 -131 -73 -207 -73z" />
    <glyph glyph-name="Ugrave" unicode="&#xd9;" horiz-adv-x="808" 
d="M719 880v-642c0 -70 -33 -136 -88 -179c-64 -50 -146 -69 -227 -69s-163 19 -227 69c-55 43 -88 109 -88 179v642h23v-642c0 -64 31 -124 82 -163c59 -46 135 -64 210 -64s151 18 210 64c51 39 82 99 82 163v642h23zM275 1111h28l218 -132h-24z" />
    <glyph glyph-name="x" unicode="x" horiz-adv-x="555" 
d="M21 572h30l227 -265l228 265h27l-241 -281l249 -291h-30l-234 273l-235 -273h-28l249 289z" />
    <glyph glyph-name="v" unicode="v" horiz-adv-x="548" 
d="M-7 572h25l230 -572h-24zM302 0l-27 -66l-27 66h54zM302 0l231 572h22l-231 -572h-22z" />
    <glyph glyph-name="r" unicode="r" horiz-adv-x="404" 
d="M82 0v572h23v-110c11 27 29 51 52 70c46 36 104 50 162 50c41 0 82 -6 119 -21l-8 -20c-35 15 -73 20 -111 20c-55 0 -110 -12 -154 -44c-36 -27 -60 -68 -60 -113v-404h-23z" />
    <glyph glyph-name="y" unicode="y" horiz-adv-x="562" 
d="M0 572h25l257 -543l257 543h23l-436 -922h-23l165 350h2z" />
    <glyph glyph-name="Gbreve" unicode="&#x11e;" horiz-adv-x="973" 
d="M897 0h-23v246c-19 -55 -51 -105 -94 -146c-81 -76 -190 -110 -301 -110s-219 34 -300 110c-78 73 -117 177 -117 284v112c0 107 39 211 117 284c81 76 189 110 300 110s220 -34 301 -110c31 -30 57 -64 76 -102l-21 -11c-18 36 -41 70 -71 98c-76 72 -180 104 -285 104
s-208 -32 -284 -104c-73 -69 -110 -168 -110 -269v-112c0 -101 37 -199 110 -268c76 -72 179 -105 284 -105s209 33 285 105c73 69 110 167 110 268v46h-395v21h418v-451zM622 1065v-18c0 -25 -18 -44 -40 -56c-31 -17 -67 -22 -103 -22s-71 5 -102 22c-22 12 -40 31 -40 56
v18h20v-18c0 -20 17 -34 35 -43c27 -13 57 -16 87 -16s61 3 88 16c18 9 35 23 35 43v18h20z" />
    <glyph glyph-name="Igrave" unicode="&#xcc;" horiz-adv-x="242" 
d="M110 0v880h23v-880h-23zM-8 1111h28l218 -132h-24z" />
    <glyph glyph-name="h" unicode="h" horiz-adv-x="630" 
d="M96 0v950h23v-482c13 27 35 50 61 67c55 36 122 47 187 47c49 0 98 -14 135 -47c34 -30 53 -74 53 -120v-415h-23v415c0 40 -16 78 -46 105c-32 29 -76 41 -119 41c-62 0 -126 -9 -179 -41c-39 -23 -69 -60 -69 -105v-415h-23z" />
    <glyph glyph-name="D" unicode="D" horiz-adv-x="856" 
d="M96 0v880h251c117 0 233 -32 322 -108c81 -69 126 -172 126 -278v-108c0 -106 -45 -209 -126 -278c-89 -76 -205 -108 -322 -108h-251zM119 21h228c111 0 222 30 306 102c76 66 118 162 118 263v108c0 101 -42 197 -118 263c-84 72 -195 102 -306 102h-228v-838z" />
    <glyph glyph-name="circumflex" unicode="&#x2c6;" horiz-adv-x="411" 
d="M206 867l-155 -119h-24l162 132h33l162 -132h-24z" />
    <glyph glyph-name="scaron" unicode="&#x161;" horiz-adv-x="562" 
d="M281 582c82 0 169 -29 198 -94l-21 -9c-25 58 -105 82 -177 82c-91 0 -184 -35 -184 -115v-34c0 -78 98 -95 181 -112l32 -7c95 -19 204 -44 204 -133v-34c0 -99 -119 -136 -233 -136c-88 0 -189 27 -223 94l20 10c29 -61 124 -83 203 -83c102 0 210 27 210 115v34
c0 80 -100 95 -185 112l-33 7c-94 19 -199 45 -199 133v34c0 91 104 136 207 136zM297 651h-33l-162 132h24l155 -119l155 119h23z" />
    <glyph glyph-name="ring" unicode="&#x2da;" horiz-adv-x="329" 
d="M164 887c45 0 106 -18 106 -65v-16c0 -47 -61 -65 -106 -65s-105 18 -105 65v16c0 47 60 65 105 65zM164 873c-37 0 -90 -13 -90 -51v-16c0 -38 53 -51 90 -51s91 13 91 51v16c0 38 -54 51 -91 51z" />
    <glyph glyph-name="Zcaron" unicode="&#x17d;" horiz-adv-x="685" 
d="M27 859v21h631v-21h-631zM27 21h-42l42 47v-47zM27 21h631v-21h-631v21zM27 68v32l631 712v-32zM658 812v47h42zM359 979h-33l-162 132h24l154 -119l155 119h24z" />
    <glyph glyph-name="racute" unicode="&#x155;" horiz-adv-x="404" 
d="M82 0v572h23v-110c11 27 29 51 52 70c46 36 104 50 162 50c41 0 82 -6 119 -21l-8 -20c-35 15 -73 20 -111 20c-55 0 -110 -12 -154 -44c-36 -27 -60 -68 -60 -113v-404h-23zM367 783h28l-222 -132h-24z" />
    <glyph glyph-name="question" unicode="?" horiz-adv-x="630" 
d="M304 170v281h11c58 0 116 13 161 50c39 32 63 81 63 132v54c0 51 -24 99 -63 131c-45 37 -103 51 -161 51s-116 -14 -161 -51c-15 -12 -27 -26 -37 -42l-21 9c11 18 25 34 42 48c49 41 113 57 177 57s129 -16 178 -57c44 -36 69 -89 69 -146v-54c0 -57 -25 -111 -69 -147
c-46 -38 -106 -54 -166 -56v-260h-23zM296 19c0 11 8 19 19 19s19 -8 19 -19s-8 -19 -19 -19s-19 8 -19 19z" />
    <glyph glyph-name="Ograve" unicode="&#xd2;" horiz-adv-x="959" 
d="M350 1111h29l217 -132h-24zM479 869c-105 0 -208 -32 -284 -104c-73 -69 -110 -168 -110 -269v-112c0 -101 37 -199 110 -268c76 -72 179 -105 284 -105s209 33 285 105c73 69 110 167 110 268v112c0 101 -37 200 -110 269c-76 72 -180 104 -285 104zM479 890
c111 0 220 -34 301 -110c78 -73 117 -177 117 -284v-112c0 -107 -39 -211 -117 -284c-81 -76 -190 -110 -301 -110s-219 34 -300 110c-78 73 -117 177 -117 284v112c0 107 39 211 117 284c81 76 189 110 300 110z" />
    <glyph glyph-name="g" unicode="g" horiz-adv-x="706" 
d="M623 572v-723c0 -60 -30 -115 -78 -151c-58 -43 -131 -58 -203 -58s-144 15 -202 58c-34 25 -59 61 -71 101l22 6c11 -37 34 -68 66 -91c53 -39 119 -53 185 -53s133 14 186 53c44 32 72 81 72 135v327c-12 -39 -34 -75 -64 -104c-52 -49 -123 -72 -194 -72
c-74 0 -147 22 -202 72c-52 47 -78 114 -78 184v70c0 70 26 137 78 184c55 50 128 72 202 72c71 0 142 -23 194 -72c30 -29 52 -65 64 -104v166h23zM342 561c-68 0 -135 -20 -185 -66c-47 -43 -72 -105 -72 -169v-70c0 -64 25 -126 72 -169c50 -46 117 -66 185 -66
s136 20 186 66c47 43 72 105 72 169v70c0 64 -25 126 -72 169c-50 46 -118 66 -186 66z" />
    <glyph glyph-name="L" unicode="L" horiz-adv-x="589" 
d="M96 0v880h23v-859h470v-21h-493z" />
    <glyph glyph-name="B" unicode="B" horiz-adv-x="719" 
d="M96 0v880h281c69 0 138 -14 194 -53c45 -32 76 -81 76 -136v-50c0 -55 -31 -105 -76 -137c-29 -21 -62 -34 -97 -42c38 -9 73 -24 105 -48c48 -36 79 -90 79 -150v-56c0 -60 -31 -114 -79 -150c-58 -43 -130 -58 -202 -58h-281zM119 859v-386h258c63 0 126 12 178 47
c41 28 69 72 69 121v50c0 49 -28 93 -69 121c-52 35 -115 47 -178 47h-258zM119 452v-431h258c66 0 132 13 185 52c44 32 72 81 72 135v56c0 54 -28 103 -72 135c-53 39 -119 53 -185 53h-258z" />
    <glyph glyph-name="eight" unicode="8" horiz-adv-x="664" 
d="M332 11c62 0 124 15 173 54c42 34 68 84 68 138v57c0 54 -26 104 -68 138c-49 39 -111 53 -173 53s-124 -14 -173 -53c-42 -34 -67 -84 -67 -138v-57c0 -54 25 -104 67 -138c49 -39 111 -54 173 -54zM332 -10c-68 0 -137 17 -190 60c-46 37 -74 93 -74 153v57
c0 60 28 116 74 153c31 25 67 41 105 50c-30 9 -59 23 -84 43c-42 34 -65 85 -65 139v52c0 54 23 105 65 139c47 39 108 54 169 54s122 -15 169 -54c42 -34 66 -85 66 -139v-52c0 -54 -24 -105 -66 -139c-25 -20 -54 -34 -84 -43c38 -9 74 -25 105 -50
c46 -37 74 -93 74 -153v-57c0 -60 -28 -116 -74 -153c-53 -43 -122 -60 -190 -60zM332 472c55 0 110 14 153 49c37 30 59 76 59 124v52c0 48 -22 94 -59 124c-43 35 -98 48 -153 48s-109 -13 -152 -48c-37 -30 -59 -76 -59 -124v-52c0 -48 22 -94 59 -124
c43 -35 97 -49 152 -49z" />
    <glyph glyph-name="d" unicode="d" horiz-adv-x="719" 
d="M623 0h-23v169c-12 -40 -34 -76 -64 -106c-52 -50 -122 -73 -194 -73c-74 0 -148 23 -202 73c-52 48 -78 116 -78 187v72c0 71 26 139 78 187c54 50 128 73 202 73c72 0 142 -23 194 -73c30 -30 52 -66 64 -106v547h23v-950zM342 561c-68 0 -135 -21 -185 -67
c-48 -44 -72 -107 -72 -172v-72c0 -65 24 -128 72 -172c50 -46 117 -67 185 -67s136 21 186 67c48 44 72 107 72 172v72c0 65 -24 128 -72 172c-50 46 -118 67 -186 67z" />
    <glyph glyph-name="Y" unicode="Y" horiz-adv-x="685" 
d="M-7 880h27l324 -527l323 527h25l-338 -550v-330h-23v330z" />
    <glyph glyph-name="Uacute" unicode="&#xda;" horiz-adv-x="808" 
d="M719 880v-642c0 -70 -33 -136 -88 -179c-64 -50 -146 -69 -227 -69s-163 19 -227 69c-55 43 -88 109 -88 179v642h23v-642c0 -64 31 -124 82 -163c59 -46 135 -64 210 -64s151 18 210 64c51 39 82 99 82 163v642h23zM505 1111h29l-223 -132h-24z" />
    <glyph glyph-name="cwm" horiz-adv-x="0" 
 />
    <glyph glyph-name="space" unicode=" " horiz-adv-x="411" 
 />
  </font>
</defs>
</svg>
